<mxfile host="Electron" agent="Mozilla/5.0 (Macintosh; Intel Mac OS X 10_15_7) AppleWebKit/537.36 (KHTML, like Gecko) draw.io/28.1.2 Chrome/138.0.7204.243 Electron/37.4.0 Safari/537.36" version="28.1.2">
  <diagram name="Page-1" id="_wDoMpjWHhORJYZpbf1l">
    <mxGraphModel dx="1002" dy="732" grid="1" gridSize="10" guides="1" tooltips="1" connect="1" arrows="1" fold="1" page="1" pageScale="1" pageWidth="850" pageHeight="1100" math="1" shadow="0">
      <root>
        <mxCell id="0" />
        <mxCell id="1" parent="0" />
        <mxCell id="74L9cqyiCj_3z7hQFq_O-41" value="" style="group" parent="1" vertex="1" connectable="0">
          <mxGeometry x="120" y="280" width="160" height="140" as="geometry" />
        </mxCell>
        <mxCell id="74L9cqyiCj_3z7hQFq_O-2" value="" style="endArrow=classic;html=1;rounded=0;strokeWidth=2.5;movable=0;resizable=0;rotatable=0;deletable=0;editable=0;locked=1;connectable=0;" parent="74L9cqyiCj_3z7hQFq_O-41" edge="1">
          <mxGeometry width="50" height="50" relative="1" as="geometry">
            <mxPoint x="70" y="90" as="sourcePoint" />
            <mxPoint x="150" y="90" as="targetPoint" />
          </mxGeometry>
        </mxCell>
        <mxCell id="74L9cqyiCj_3z7hQFq_O-3" value="" style="endArrow=classic;html=1;rounded=0;strokeWidth=3;movable=0;resizable=0;rotatable=0;deletable=0;editable=0;locked=1;connectable=0;" parent="74L9cqyiCj_3z7hQFq_O-41" edge="1">
          <mxGeometry width="50" height="50" relative="1" as="geometry">
            <mxPoint x="70" y="90" as="sourcePoint" />
            <mxPoint x="70" y="10" as="targetPoint" />
          </mxGeometry>
        </mxCell>
        <mxCell id="74L9cqyiCj_3z7hQFq_O-4" value="" style="endArrow=classic;html=1;rounded=0;strokeWidth=3;movable=0;resizable=0;rotatable=0;deletable=0;editable=0;locked=1;connectable=0;" parent="74L9cqyiCj_3z7hQFq_O-41" edge="1">
          <mxGeometry width="50" height="50" relative="1" as="geometry">
            <mxPoint x="70" y="90" as="sourcePoint" />
            <mxPoint x="20" y="130" as="targetPoint" />
          </mxGeometry>
        </mxCell>
        <mxCell id="74L9cqyiCj_3z7hQFq_O-5" value="" style="rounded=1;whiteSpace=wrap;html=1;fillColor=none;strokeWidth=5;movable=1;resizable=1;rotatable=1;deletable=1;editable=1;locked=0;connectable=1;" parent="74L9cqyiCj_3z7hQFq_O-41" vertex="1">
          <mxGeometry width="160" height="140" as="geometry" />
        </mxCell>
        <mxCell id="74L9cqyiCj_3z7hQFq_O-20" value="" style="group" parent="1" vertex="1" connectable="0">
          <mxGeometry x="330" y="20" width="270" height="140" as="geometry" />
        </mxCell>
        <mxCell id="74L9cqyiCj_3z7hQFq_O-16" value="" style="endArrow=none;html=1;rounded=0;strokeWidth=2;movable=1;resizable=1;rotatable=1;deletable=1;editable=1;locked=0;connectable=1;" parent="74L9cqyiCj_3z7hQFq_O-20" edge="1">
          <mxGeometry width="50" height="50" relative="1" as="geometry">
            <mxPoint x="110" y="90" as="sourcePoint" />
            <mxPoint x="120" y="110" as="targetPoint" />
          </mxGeometry>
        </mxCell>
        <mxCell id="74L9cqyiCj_3z7hQFq_O-17" value="" style="endArrow=none;html=1;rounded=0;strokeWidth=2;movable=1;resizable=1;rotatable=1;deletable=1;editable=1;locked=0;connectable=1;" parent="74L9cqyiCj_3z7hQFq_O-20" edge="1">
          <mxGeometry width="50" height="50" relative="1" as="geometry">
            <mxPoint x="110" y="110" as="sourcePoint" />
            <mxPoint x="100" y="90" as="targetPoint" />
          </mxGeometry>
        </mxCell>
        <mxCell id="74L9cqyiCj_3z7hQFq_O-14" value="" style="rounded=1;whiteSpace=wrap;html=1;fillColor=none;strokeWidth=5;container=0;connectable=1;movable=1;resizable=1;rotatable=1;deletable=1;editable=1;locked=0;" parent="74L9cqyiCj_3z7hQFq_O-20" vertex="1">
          <mxGeometry x="32.5" width="160" height="140" as="geometry" />
        </mxCell>
        <mxCell id="74L9cqyiCj_3z7hQFq_O-10" value="" style="endArrow=classic;html=1;rounded=0;strokeWidth=2.5;movable=1;resizable=1;rotatable=1;deletable=1;editable=1;locked=0;connectable=1;" parent="74L9cqyiCj_3z7hQFq_O-20" edge="1">
          <mxGeometry width="50" height="50" relative="1" as="geometry">
            <mxPoint x="100" y="90" as="sourcePoint" />
            <mxPoint x="180" y="90" as="targetPoint" />
          </mxGeometry>
        </mxCell>
        <mxCell id="74L9cqyiCj_3z7hQFq_O-11" value="" style="endArrow=classic;html=1;rounded=0;strokeWidth=3;movable=1;resizable=1;rotatable=1;deletable=1;editable=1;locked=0;connectable=1;" parent="74L9cqyiCj_3z7hQFq_O-20" edge="1">
          <mxGeometry width="50" height="50" relative="1" as="geometry">
            <mxPoint x="100" y="90" as="sourcePoint" />
            <mxPoint x="100" y="10" as="targetPoint" />
          </mxGeometry>
        </mxCell>
        <mxCell id="74L9cqyiCj_3z7hQFq_O-12" value="" style="endArrow=classic;html=1;rounded=0;strokeWidth=3;movable=1;resizable=1;rotatable=1;deletable=1;editable=1;locked=0;connectable=1;" parent="74L9cqyiCj_3z7hQFq_O-20" edge="1">
          <mxGeometry width="50" height="50" relative="1" as="geometry">
            <mxPoint x="100" y="90" as="sourcePoint" />
            <mxPoint x="50" y="130" as="targetPoint" />
          </mxGeometry>
        </mxCell>
        <mxCell id="74L9cqyiCj_3z7hQFq_O-13" value="" style="endArrow=none;html=1;rounded=0;strokeWidth=2;movable=1;resizable=1;rotatable=1;deletable=1;editable=1;locked=0;connectable=1;" parent="74L9cqyiCj_3z7hQFq_O-20" edge="1">
          <mxGeometry width="50" height="50" relative="1" as="geometry">
            <mxPoint x="130" y="110" as="sourcePoint" />
            <mxPoint x="120" y="90" as="targetPoint" />
          </mxGeometry>
        </mxCell>
        <mxCell id="74L9cqyiCj_3z7hQFq_O-15" value="" style="endArrow=none;html=1;rounded=0;strokeWidth=2;movable=1;resizable=1;rotatable=1;deletable=1;editable=1;locked=0;connectable=1;" parent="74L9cqyiCj_3z7hQFq_O-20" edge="1">
          <mxGeometry width="50" height="50" relative="1" as="geometry">
            <mxPoint x="140" y="110" as="sourcePoint" />
            <mxPoint x="130" y="90" as="targetPoint" />
          </mxGeometry>
        </mxCell>
        <mxCell id="74L9cqyiCj_3z7hQFq_O-8" value="&lt;font style=&quot;font-size: 30px;&quot;&gt;$$\mathcal{F}_I$$&lt;/font&gt;" style="text;html=1;align=center;verticalAlign=middle;resizable=1;points=[];autosize=1;strokeColor=none;fillColor=none;rounded=0;strokeWidth=1;movable=1;rotatable=1;deletable=1;editable=1;locked=0;connectable=1;" parent="74L9cqyiCj_3z7hQFq_O-20" vertex="1">
          <mxGeometry y="25" width="270" height="50" as="geometry" />
        </mxCell>
        <mxCell id="74L9cqyiCj_3z7hQFq_O-6" value="&lt;font style=&quot;font-size: 30px;&quot;&gt;$$\mathcal{F}_P$$&lt;/font&gt;" style="text;html=1;align=center;verticalAlign=middle;resizable=0;points=[];autosize=1;strokeColor=none;fillColor=none;" parent="1" vertex="1">
          <mxGeometry x="85" y="305" width="280" height="50" as="geometry" />
        </mxCell>
        <mxCell id="74L9cqyiCj_3z7hQFq_O-22" value="" style="endArrow=classic;html=1;rounded=0;strokeWidth=2.5;movable=1;resizable=1;rotatable=1;deletable=1;editable=1;locked=0;connectable=1;" parent="1" edge="1">
          <mxGeometry width="50" height="50" relative="1" as="geometry">
            <mxPoint x="675" y="370" as="sourcePoint" />
            <mxPoint x="755" y="370" as="targetPoint" />
          </mxGeometry>
        </mxCell>
        <mxCell id="74L9cqyiCj_3z7hQFq_O-23" value="" style="endArrow=classic;html=1;rounded=0;strokeWidth=3;movable=1;resizable=1;rotatable=1;deletable=1;editable=1;locked=0;connectable=1;" parent="1" edge="1">
          <mxGeometry width="50" height="50" relative="1" as="geometry">
            <mxPoint x="675" y="370" as="sourcePoint" />
            <mxPoint x="675" y="290" as="targetPoint" />
          </mxGeometry>
        </mxCell>
        <mxCell id="74L9cqyiCj_3z7hQFq_O-24" value="" style="endArrow=classic;html=1;rounded=0;strokeWidth=3;movable=1;resizable=1;rotatable=1;deletable=1;editable=1;locked=0;connectable=1;" parent="1" edge="1">
          <mxGeometry width="50" height="50" relative="1" as="geometry">
            <mxPoint x="675" y="370" as="sourcePoint" />
            <mxPoint x="625" y="410" as="targetPoint" />
          </mxGeometry>
        </mxCell>
        <mxCell id="74L9cqyiCj_3z7hQFq_O-25" value="" style="rounded=1;whiteSpace=wrap;html=1;fillColor=none;strokeWidth=5;movable=1;resizable=1;rotatable=1;deletable=1;editable=1;locked=0;connectable=1;" parent="1" vertex="1">
          <mxGeometry x="605" y="280" width="160" height="140" as="geometry" />
        </mxCell>
        <mxCell id="74L9cqyiCj_3z7hQFq_O-26" value="&lt;font style=&quot;font-size: 30px;&quot;&gt;$$\mathcal{F}_B$$&lt;/font&gt;" style="text;html=1;align=center;verticalAlign=middle;resizable=1;points=[];autosize=1;strokeColor=none;fillColor=none;movable=1;rotatable=1;deletable=1;editable=1;locked=0;connectable=1;" parent="1" vertex="1">
          <mxGeometry x="570" y="305" width="280" height="50" as="geometry" />
        </mxCell>
        <mxCell id="74L9cqyiCj_3z7hQFq_O-43" value="" style="endArrow=classic;startArrow=none;html=1;rounded=0;exitX=0.75;exitY=1;exitDx=0;exitDy=0;entryX=0.25;entryY=0;entryDx=0;entryDy=0;strokeWidth=5;edgeStyle=orthogonalEdgeStyle;startFill=0;" parent="1" source="74L9cqyiCj_3z7hQFq_O-14" target="74L9cqyiCj_3z7hQFq_O-25" edge="1">
          <mxGeometry width="50" height="50" relative="1" as="geometry">
            <mxPoint x="550" y="600" as="sourcePoint" />
            <mxPoint x="712" y="480" as="targetPoint" />
          </mxGeometry>
        </mxCell>
        <mxCell id="74L9cqyiCj_3z7hQFq_O-44" value="" style="endArrow=classic;startArrow=none;html=1;rounded=0;entryX=0.75;entryY=0;entryDx=0;entryDy=0;strokeWidth=5;edgeStyle=orthogonalEdgeStyle;exitX=0.25;exitY=1;exitDx=0;exitDy=0;startFill=0;" parent="1" source="74L9cqyiCj_3z7hQFq_O-14" target="74L9cqyiCj_3z7hQFq_O-5" edge="1">
          <mxGeometry width="50" height="50" relative="1" as="geometry">
            <mxPoint x="390" y="190" as="sourcePoint" />
            <mxPoint x="562" y="340" as="targetPoint" />
          </mxGeometry>
        </mxCell>
        <mxCell id="74L9cqyiCj_3z7hQFq_O-45" value="" style="endArrow=none;startArrow=classic;html=1;rounded=0;entryX=1;entryY=0.5;entryDx=0;entryDy=0;strokeWidth=5;edgeStyle=orthogonalEdgeStyle;exitX=0;exitY=0.5;exitDx=0;exitDy=0;startFill=1;endFill=0;" parent="1" source="74L9cqyiCj_3z7hQFq_O-25" target="74L9cqyiCj_3z7hQFq_O-5" edge="1">
          <mxGeometry width="50" height="50" relative="1" as="geometry">
            <mxPoint x="423" y="210" as="sourcePoint" />
            <mxPoint x="260" y="330" as="targetPoint" />
          </mxGeometry>
        </mxCell>
        <mxCell id="74L9cqyiCj_3z7hQFq_O-46" value="&lt;font style=&quot;font-size: 25px;&quot;&gt;&lt;b&gt;$$ \psi,&amp;nbsp; \theta, \phi $$&lt;/b&gt;&lt;/font&gt;" style="text;html=1;align=center;verticalAlign=middle;whiteSpace=wrap;rounded=0;" parent="1" vertex="1">
          <mxGeometry x="520" y="180" width="100" height="30" as="geometry" />
        </mxCell>
        <mxCell id="74L9cqyiCj_3z7hQFq_O-48" value="&lt;font style=&quot;font-size: 25px;&quot;&gt;&lt;b&gt;$$ \psi_p,&amp;nbsp; \theta_p, \phi_p $$&lt;/b&gt;&lt;/font&gt;" style="text;html=1;align=center;verticalAlign=middle;whiteSpace=wrap;rounded=0;" parent="1" vertex="1">
          <mxGeometry x="265" y="180" width="100" height="30" as="geometry" />
        </mxCell>
        <mxCell id="74L9cqyiCj_3z7hQFq_O-51" value="&lt;b style=&quot;font-size: 25px;&quot;&gt;$$ \psi_e,&amp;nbsp; \theta_e, \phi_e $$&lt;/b&gt;" style="text;html=1;align=center;verticalAlign=middle;whiteSpace=wrap;rounded=0;" parent="1" vertex="1">
          <mxGeometry x="400" y="310" width="100" height="30" as="geometry" />
        </mxCell>
      </root>
    </mxGraphModel>
  </diagram>
</mxfile>
